# xmcd CD database file
#
# Track frame offsets:
#	150
#	30335
#	62432
#	87137
#	118800
#	141072
#	181192
#	195235
#	239350
#	268032
#
# Disc length: 3930 seconds
#
# Revision: 0
# Processed by: cddbd v1.4PL0 Copyright (c) Steve Scherf et al.
# Submitted via: CDex 1.50beta9
#
DISCID=7a0f580a
DTITLE=Various Artist - Blues In The Night - BLUE NOTE PRESENTS BLUE NOTE
DYEAR=1900
DGENRE=Jazz
TTITLE0=Blues Walk - Lou Donaldson
TTITLE1=Walkin'- Horace Parlan
TTITLE2=Chittlins Con Carne - Kenny Burrell
TTITLE3=Senor Blues - Horace Silver
TTITLE4=True Blue - tina Brooks
TTITLE5=Things Ain't What They Used To Be - The Three Sounds
TTITLE6=Bag's Groove - Milt Jackson
TTITLE7=So What - Grant Green
TTITLE8=Groovin' The Blues - Kenny Drew
TTITLE9=Blues In The Night - Sonny Clark
EXTD=
EXTT0=
EXTT1=
EXTT2=
EXTT3=
EXTT4=
EXTT5=
EXTT6=
EXTT7=
EXTT8=
EXTT9=
PLAYORDER=
